<svg width="42" height="42" viewBox="0 0 42 42" fill="none" xmlns="http://www.w3.org/2000/svg">
<rect width="42" height="42" rx="8" fill="#031628"/>
<circle cx="21" cy="21" r="21" fill="white"/>
<path fill-rule="evenodd" clip-rule="evenodd" d="M0 21C0 9.40202 9.40202 0 21 0C32.598 0 42 9.40202 42 21C42 32.598 32.598 42 21 42C9.40202 42 0 32.598 0 21ZM21.001 9.8C17.9593 9.8 17.5775 9.8133 16.3829 9.86767C15.1905 9.92227 14.3766 10.111 13.6645 10.388C12.9279 10.6741 12.303 11.0567 11.6805 11.6795C11.0574 12.3021 10.6748 12.9269 10.3878 13.6633C10.1101 14.3757 9.9211 15.1898 9.86743 16.3817C9.814 17.5764 9.8 17.9584 9.8 21.0001C9.8 24.0419 9.81353 24.4225 9.86767 25.6171C9.9225 26.8095 10.1113 27.6234 10.388 28.3355C10.6743 29.0721 11.057 29.697 11.6798 30.3195C12.3021 30.9426 12.9269 31.3262 13.6631 31.6122C14.3757 31.8892 15.1898 32.078 16.3819 32.1326C17.5766 32.1869 17.9581 32.2002 20.9996 32.2002C24.0416 32.2002 24.4222 32.1869 25.6169 32.1326C26.8092 32.078 27.6241 31.8892 28.3367 31.6122C29.0731 31.3262 29.697 30.9426 30.3193 30.3195C30.9423 29.697 31.325 29.0721 31.612 28.3357C31.8873 27.6234 32.0763 26.8092 32.1323 25.6174C32.186 24.4227 32.2 24.0419 32.2 21.0001C32.2 17.9584 32.186 17.5766 32.1323 16.3819C32.0763 15.1896 31.8873 14.3757 31.612 13.6636C31.325 12.9269 30.9423 12.3021 30.3193 11.6795C29.6963 11.0565 29.0733 10.6738 28.336 10.388C27.622 10.111 26.8076 9.92227 25.6153 9.86767C24.4206 9.8133 24.0402 9.8 20.9976 9.8H21.001Z" fill="#031628"/>
<path fill-rule="evenodd" clip-rule="evenodd" d="M19.9963 11.8184C20.2945 11.8179 20.6272 11.8184 21.001 11.8184C23.9915 11.8184 24.3459 11.8291 25.5268 11.8828C26.6188 11.9327 27.2115 12.1152 27.6063 12.2685C28.129 12.4715 28.5016 12.7141 28.8934 13.1061C29.2854 13.4981 29.5281 13.8715 29.7315 14.3941C29.8848 14.7885 30.0675 15.3812 30.1172 16.4732C30.1709 17.6538 30.1826 18.0085 30.1826 20.9976C30.1826 23.9866 30.1709 24.3413 30.1172 25.5219C30.0673 26.6139 29.8848 27.2066 29.7315 27.601C29.5285 28.1236 29.2854 28.4958 28.8934 28.8876C28.5014 29.2796 28.1292 29.5222 27.6063 29.7252C27.212 29.8792 26.6188 30.0612 25.5268 30.1112C24.3462 30.1648 23.9915 30.1765 21.001 30.1765C18.0104 30.1765 17.6559 30.1648 16.4753 30.1112C15.3833 30.0608 14.7906 29.8783 14.3955 29.725C13.8729 29.522 13.4995 29.2793 13.1075 28.8873C12.7155 28.4953 12.4729 28.1229 12.2694 27.6C12.1161 27.2057 11.9334 26.613 11.8837 25.521C11.83 24.3403 11.8193 23.9856 11.8193 20.9947C11.8193 18.0039 11.83 17.651 11.8837 16.4704C11.9336 15.3784 12.1161 14.7857 12.2694 14.3909C12.4724 13.8682 12.7155 13.4949 13.1075 13.1029C13.4995 12.7109 13.8729 12.4682 14.3955 12.2647C14.7904 12.1107 15.3833 11.9287 16.4753 11.8786C17.5085 11.8319 17.9089 11.8179 19.9963 11.8156V11.8184ZM26.9796 13.678C26.2376 13.678 25.6356 14.2793 25.6356 15.0216C25.6356 15.7636 26.2376 16.3656 26.9796 16.3656C27.7216 16.3656 28.3236 15.7636 28.3236 15.0216C28.3236 14.2796 27.7216 13.678 26.9796 13.678ZM21.001 15.2484C17.8247 15.2484 15.2493 17.8237 15.2493 21.0001C15.2493 24.1765 17.8247 26.7507 21.001 26.7507C24.1774 26.7507 26.7518 24.1765 26.7518 21.0001C26.7518 17.8237 24.1774 15.2484 21.001 15.2484Z" fill="#031628"/>
<path fill-rule="evenodd" clip-rule="evenodd" d="M21.0011 17.2667C23.0628 17.2667 24.7344 18.9381 24.7344 21.0001C24.7344 23.0619 23.0628 24.7335 21.0011 24.7335C18.9391 24.7335 17.2677 23.0619 17.2677 21.0001C17.2677 18.9381 18.9391 17.2667 21.0011 17.2667Z" fill="#031628"/>
</svg>
