<svg width="3194" height="1868" viewBox="0 0 3194 1868" fill="none" xmlns="http://www.w3.org/2000/svg">
<circle cx="1584.34" cy="531.343" r="216.179" transform="rotate(-23.4451 1584.34 531.343)" fill="#67ADE0" fill-opacity="0.8"/>
<circle cx="380.782" cy="1220.78" r="164.054" transform="rotate(-23.4451 380.782 1220.78)" fill="#67ADE0" fill-opacity="0.8"/>
<circle cx="2712.34" cy="877.343" r="216.179" transform="rotate(-23.4451 2712.34 877.343)" fill="#67ADE0" fill-opacity="0.8"/>
<circle cx="380.807" cy="395.807" r="289.518" transform="rotate(-23.4451 380.807 395.807)" fill="#63D3F7" fill-opacity="0.8"/>
<circle cx="2577.29" cy="1206.29" r="318.779" transform="rotate(-23.4451 2577.29 1206.29)" fill="#5FE7DE" fill-opacity="0.8"/>
<circle cx="591.193" cy="187.193" r="139.277" transform="rotate(-23.4451 591.193 187.193)" fill="#5FE7DE" fill-opacity="0.8"/>
<path d="M546.069 190.575L513.153 188.113L520.992 83.3273L487.954 90.3548L489.819 65.4245L553.657 48.5579L556.676 48.7838L546.069 190.575ZM731.499 146.179C730.066 165.332 724.644 179.778 715.232 189.52C705.885 199.267 693.388 203.555 677.742 202.384C661.966 201.204 650.151 195.065 642.298 183.966C634.446 172.868 631.231 157.807 632.654 138.785L634.592 112.881C636.025 93.7283 641.414 79.2789 650.761 69.5324C660.173 59.7907 672.735 55.5076 688.446 56.683C704.157 57.8583 715.939 63.9953 723.792 75.0938C731.645 86.1924 734.857 101.285 733.429 120.373L731.499 146.179ZM700.932 113.632C701.694 103.44 700.931 95.7441 698.644 90.5459C696.361 85.2828 692.33 82.4351 686.552 82.0028C680.904 81.5803 676.606 83.6091 673.66 88.0893C670.778 92.5743 668.885 99.5489 667.981 109.013L665.271 145.24C664.479 155.822 665.23 163.68 667.523 168.813C669.82 173.882 673.858 176.632 679.636 177.064C685.22 177.482 689.519 175.421 692.536 170.881C695.557 166.275 697.481 158.879 698.309 148.691L700.932 113.632ZM886.885 157.804C885.452 176.956 880.03 191.403 870.618 201.145C861.271 210.891 848.774 215.179 833.128 214.009C817.352 212.828 805.537 206.689 797.685 195.591C789.832 184.492 786.617 169.432 788.04 150.409L789.978 124.505C791.411 105.353 796.801 90.9035 806.147 81.1569C815.559 71.4153 828.121 67.1321 843.832 68.3075C859.543 69.4829 871.326 75.6198 879.178 86.7183C887.031 97.8169 890.243 112.91 888.816 131.997L886.885 157.804ZM856.318 125.257C857.08 115.064 856.318 107.369 854.03 102.17C851.747 96.9073 847.716 94.0596 841.938 93.6274C836.29 93.2048 831.992 95.2336 829.046 99.7138C826.164 104.199 824.271 111.173 823.367 120.638L820.657 156.864C819.865 167.447 820.616 175.305 822.909 180.438C825.206 185.506 829.244 188.257 835.022 188.689C840.606 189.107 844.905 187.045 847.922 182.505C850.943 177.9 852.867 170.503 853.695 160.315L856.318 125.257ZM1012.23 225.449L979.311 222.986L987.15 118.201L954.112 125.228L955.977 100.298L1019.82 83.4315L1022.83 83.6573L1012.23 225.449ZM1197.66 181.053C1196.22 200.205 1190.8 214.652 1181.39 224.394C1172.04 234.14 1159.55 238.428 1143.9 237.258C1128.12 236.078 1116.31 229.938 1108.46 218.84C1100.6 207.741 1097.39 192.681 1098.81 173.658L1100.75 147.754C1102.18 128.602 1107.57 114.153 1116.92 104.406C1126.33 94.6643 1138.89 90.3812 1154.6 91.5565C1170.32 92.7319 1182.1 98.8689 1189.95 109.967C1197.8 121.066 1201.02 136.159 1199.59 155.246L1197.66 181.053ZM1167.09 148.506C1167.85 138.313 1167.09 130.618 1164.8 125.419C1162.52 120.156 1158.49 117.309 1152.71 116.876C1147.06 116.454 1142.76 118.483 1139.82 122.963C1136.94 127.448 1135.04 134.422 1134.14 143.887L1131.43 180.113C1130.64 190.696 1131.39 198.554 1133.68 203.687C1135.98 208.755 1140.02 211.506 1145.79 211.938C1151.38 212.356 1155.68 210.294 1158.69 205.754C1161.72 201.149 1163.64 193.752 1164.47 183.564L1167.09 148.506ZM1323 248.698L1290.08 246.235L1297.92 141.45L1264.88 148.477L1266.75 123.547L1330.59 106.681L1333.61 106.906L1323 248.698ZM1478.39 260.322L1445.47 257.86L1453.31 153.074L1420.27 160.102L1422.14 135.172L1485.97 118.305L1488.99 118.531L1478.39 260.322ZM1663.82 215.926C1662.38 235.079 1656.96 249.526 1647.55 259.267C1638.2 269.014 1625.7 273.302 1610.06 272.131C1594.28 270.951 1582.47 264.812 1574.62 253.713C1566.76 242.615 1563.55 227.554 1564.97 208.532L1566.91 182.628C1568.34 163.475 1573.73 149.026 1583.08 139.28C1592.49 129.538 1605.05 125.255 1620.76 126.43C1636.47 127.605 1648.26 133.742 1656.11 144.841C1663.96 155.939 1667.17 171.032 1665.75 190.12L1663.82 215.926ZM1633.25 183.38C1634.01 173.187 1633.25 165.491 1630.96 160.293C1628.68 155.03 1624.65 152.182 1618.87 151.75C1613.22 151.327 1608.92 153.356 1605.98 157.836C1603.09 162.321 1601.2 169.296 1600.3 178.76L1597.59 214.987C1596.8 225.569 1597.55 233.427 1599.84 238.561C1602.14 243.629 1606.17 246.379 1611.95 246.811C1617.54 247.229 1621.84 245.168 1624.85 240.628C1627.87 236.022 1629.8 228.626 1630.63 218.438L1633.25 183.38ZM1819.2 227.551C1817.77 246.703 1812.35 261.15 1802.93 270.892C1793.59 280.638 1781.09 284.926 1765.44 283.756C1749.67 282.576 1737.85 276.436 1730 265.338C1722.15 254.239 1718.93 239.179 1720.36 220.156L1722.29 194.252C1723.73 175.1 1729.12 160.651 1738.46 150.904C1747.88 141.162 1760.44 136.879 1776.15 138.055C1791.86 139.23 1803.64 145.367 1811.49 156.465C1819.35 167.564 1822.56 182.657 1821.13 201.744L1819.2 227.551ZM1788.63 195.004C1789.4 184.811 1788.63 177.116 1786.35 171.918C1784.06 166.654 1780.03 163.807 1774.25 163.374C1768.61 162.952 1764.31 164.981 1761.36 169.461C1758.48 173.946 1756.59 180.921 1755.68 190.385L1752.97 226.612C1752.18 237.194 1752.93 245.052 1755.23 250.185C1757.52 255.253 1761.56 258.004 1767.34 258.436C1772.92 258.854 1777.22 256.792 1780.24 252.252C1783.26 247.647 1785.18 240.25 1786.01 230.062L1788.63 195.004ZM1944.54 295.196L1911.63 292.733L1919.47 187.948L1886.43 194.975L1888.29 170.045L1952.13 153.179L1955.15 153.404L1944.54 295.196ZM2129.97 250.8C2128.54 269.952 2123.12 284.399 2113.71 294.141C2104.36 303.887 2091.86 308.175 2076.22 307.005C2060.44 305.825 2048.63 299.685 2040.77 288.587C2032.92 277.488 2029.71 262.428 2031.13 243.405L2033.07 217.501C2034.5 198.349 2039.89 183.9 2049.24 174.153C2058.65 164.411 2071.21 160.128 2086.92 161.304C2102.63 162.479 2114.41 168.616 2122.27 179.715C2130.12 190.813 2133.33 205.906 2131.9 224.993L2129.97 250.8ZM2099.41 218.253C2100.17 208.06 2099.41 200.365 2097.12 195.167C2094.84 189.903 2090.8 187.056 2085.03 186.624C2079.38 186.201 2075.08 188.23 2072.13 192.71C2069.25 197.195 2067.36 204.17 2066.46 213.634L2063.75 249.861C2062.95 260.443 2063.7 268.301 2066 273.434C2068.3 278.502 2072.33 281.253 2078.11 281.685C2083.69 282.103 2087.99 280.041 2091.01 275.501C2094.03 270.896 2095.96 263.499 2096.78 253.311L2099.41 218.253ZM2255.32 318.445L2222.4 315.982L2230.24 211.197L2197.2 218.225L2199.07 193.294L2262.9 176.428L2265.92 176.653L2255.32 318.445ZM2410.7 330.069L2377.79 327.607L2385.62 222.822L2352.59 229.849L2354.45 204.919L2418.29 188.052L2421.31 188.278L2410.7 330.069ZM2596.13 285.674C2594.7 304.826 2589.28 319.273 2579.87 329.014C2570.52 338.761 2558.02 343.049 2542.38 341.878C2526.6 340.698 2514.78 334.559 2506.93 323.46C2499.08 312.362 2495.86 297.301 2497.29 278.279L2499.23 252.375C2500.66 233.223 2506.05 218.773 2515.39 209.027C2524.81 199.285 2537.37 195.002 2553.08 196.177C2568.79 197.353 2580.57 203.49 2588.43 214.588C2596.28 225.687 2599.49 240.78 2598.06 259.867L2596.13 285.674ZM2565.56 253.127C2566.33 242.934 2565.56 235.238 2563.28 230.04C2560.99 224.777 2556.96 221.929 2551.19 221.497C2545.54 221.075 2541.24 223.103 2538.29 227.584C2535.41 232.069 2533.52 239.043 2532.61 248.507L2529.9 284.734C2529.11 295.317 2529.86 303.174 2532.16 308.308C2534.45 313.376 2538.49 316.126 2544.27 316.559C2549.85 316.976 2554.15 314.915 2557.17 310.375C2560.19 305.77 2562.11 298.373 2562.94 288.185L2565.56 253.127Z" fill="#000E1B"/>
<path d="M173.069 451.575L140.153 449.113L147.992 344.327L114.954 351.355L116.819 326.424L180.657 309.558L183.676 309.784L173.069 451.575ZM358.499 407.179C357.066 426.332 351.644 440.778 342.232 450.52C332.885 460.267 320.389 464.555 304.742 463.384C288.966 462.204 277.151 456.065 269.299 444.966C261.446 433.868 258.231 418.807 259.654 399.785L261.592 373.881C263.025 354.728 268.415 340.279 277.762 330.532C287.173 320.791 299.735 316.508 315.446 317.683C331.158 318.858 342.94 324.995 350.792 336.094C358.645 347.192 361.858 362.285 360.43 381.373L358.499 407.179ZM327.932 374.632C328.694 364.44 327.932 356.744 325.644 351.546C323.361 346.283 319.33 343.435 313.552 343.003C307.904 342.58 303.606 344.609 300.66 349.089C297.778 353.574 295.885 360.549 294.981 370.013L292.271 406.24C291.48 416.822 292.23 424.68 294.523 429.813C296.82 434.882 300.858 437.632 306.636 438.064C312.22 438.482 316.52 436.421 319.536 431.881C322.557 427.275 324.482 419.879 325.309 409.691L327.932 374.632ZM513.885 418.804C512.452 437.956 507.03 452.403 497.618 462.145C488.271 471.891 475.775 476.179 460.128 475.009C444.352 473.828 432.538 467.689 424.685 456.591C416.832 445.492 413.617 430.432 415.04 411.409L416.978 385.505C418.411 366.353 423.801 351.903 433.148 342.157C442.56 332.415 455.121 328.132 470.832 329.307C486.544 330.483 498.326 336.62 506.179 347.718C514.031 358.817 517.244 373.91 515.816 392.997L513.885 418.804ZM483.318 386.257C484.08 376.064 483.318 368.369 481.03 363.17C478.747 357.907 474.716 355.06 468.938 354.627C463.29 354.205 458.993 356.234 456.046 360.714C453.164 365.199 451.271 372.173 450.368 381.638L447.657 417.864C446.866 428.447 447.616 436.305 449.909 441.438C452.207 446.506 456.244 449.257 462.022 449.689C467.606 450.107 471.906 448.045 474.922 443.505C477.943 438.9 479.868 431.503 480.695 421.315L483.318 386.257ZM639.227 486.449L606.311 483.986L614.15 379.201L581.112 386.228L582.977 361.298L646.816 344.431L649.835 344.657L639.227 486.449ZM824.657 442.053C823.225 461.205 817.802 475.652 808.39 485.394C799.044 495.14 786.547 499.428 770.9 498.258C755.124 497.078 743.31 490.938 735.457 479.84C727.604 468.741 724.389 453.681 725.812 434.658L727.75 408.754C729.183 389.602 734.573 375.153 743.92 365.406C753.332 355.664 765.893 351.381 781.605 352.557C797.316 353.732 809.098 359.869 816.951 370.967C824.803 382.066 828.016 397.159 826.588 416.246L824.657 442.053ZM794.09 409.506C794.853 399.313 794.09 391.618 791.802 386.419C789.519 381.156 785.489 378.309 779.71 377.876C774.062 377.454 769.765 379.483 766.818 383.963C763.936 388.448 762.044 395.422 761.14 404.887L758.43 441.113C757.638 451.696 758.388 459.554 760.681 464.687C762.979 469.755 767.017 472.506 772.795 472.938C778.378 473.356 782.678 471.294 785.694 466.754C788.716 462.149 790.64 454.752 791.467 444.564L794.09 409.506ZM949.999 509.698L917.083 507.235L924.922 402.45L891.884 409.477L893.749 384.547L957.588 367.681L960.607 367.906L949.999 509.698ZM1105.39 521.322L1072.47 518.86L1080.31 414.074L1047.27 421.102L1049.14 396.172L1112.97 379.305L1115.99 379.531L1105.39 521.322ZM1290.82 476.926C1289.38 496.079 1283.96 510.526 1274.55 520.267C1265.2 530.014 1252.71 534.302 1237.06 533.131C1221.28 531.951 1209.47 525.812 1201.62 514.713C1193.76 503.615 1190.55 488.554 1191.97 469.532L1193.91 443.628C1195.34 424.475 1200.73 410.026 1210.08 400.28C1219.49 390.538 1232.05 386.255 1247.76 387.43C1263.47 388.605 1275.26 394.742 1283.11 405.841C1290.96 416.939 1294.17 432.032 1292.75 451.12L1290.82 476.926ZM1260.25 444.38C1261.01 434.187 1260.25 426.491 1257.96 421.293C1255.68 416.03 1251.65 413.182 1245.87 412.75C1240.22 412.327 1235.92 414.356 1232.98 418.836C1230.09 423.321 1228.2 430.296 1227.3 439.76L1224.59 475.987C1223.8 486.569 1224.55 494.427 1226.84 499.561C1229.14 504.629 1233.17 507.379 1238.95 507.811C1244.54 508.229 1248.84 506.168 1251.85 501.628C1254.87 497.022 1256.8 489.626 1257.63 479.438L1260.25 444.38ZM1446.2 488.551C1444.77 507.703 1439.35 522.15 1429.93 531.892C1420.59 541.638 1408.09 545.926 1392.44 544.756C1376.67 543.576 1364.85 537.436 1357 526.338C1349.15 515.239 1345.93 500.179 1347.36 481.156L1349.29 455.252C1350.73 436.1 1356.12 421.651 1365.46 411.904C1374.88 402.162 1387.44 397.879 1403.15 399.055C1418.86 400.23 1430.64 406.367 1438.5 417.465C1446.35 428.564 1449.56 443.657 1448.13 462.744L1446.2 488.551ZM1415.63 456.004C1416.4 445.811 1415.63 438.116 1413.35 432.918C1411.06 427.654 1407.03 424.807 1401.25 424.374C1395.61 423.952 1391.31 425.981 1388.36 430.461C1385.48 434.946 1383.59 441.921 1382.68 451.385L1379.97 487.612C1379.18 498.194 1379.93 506.052 1382.23 511.185C1384.52 516.253 1388.56 519.004 1394.34 519.436C1399.92 519.854 1404.22 517.792 1407.24 513.252C1410.26 508.647 1412.18 501.25 1413.01 491.062L1415.63 456.004ZM1571.54 556.196L1538.63 553.733L1546.47 448.948L1513.43 455.975L1515.29 431.045L1579.13 414.179L1582.15 414.404L1571.54 556.196ZM1756.97 511.8C1755.54 530.952 1750.12 545.399 1740.71 555.141C1731.36 564.887 1718.86 569.175 1703.22 568.005C1687.44 566.825 1675.63 560.685 1667.77 549.587C1659.92 538.488 1656.71 523.428 1658.13 504.405L1660.07 478.501C1661.5 459.349 1666.89 444.9 1676.24 435.153C1685.65 425.411 1698.21 421.128 1713.92 422.304C1729.63 423.479 1741.41 429.616 1749.27 440.715C1757.12 451.813 1760.33 466.906 1758.9 485.993L1756.97 511.8ZM1726.41 479.253C1727.17 469.06 1726.41 461.365 1724.12 456.167C1721.84 450.903 1717.81 448.056 1712.03 447.624C1706.38 447.201 1702.08 449.23 1699.13 453.71C1696.25 458.195 1694.36 465.17 1693.46 474.634L1690.75 510.861C1689.95 521.443 1690.71 529.301 1693 534.434C1695.3 539.502 1699.33 542.253 1705.11 542.685C1710.69 543.103 1714.99 541.041 1718.01 536.501C1721.03 531.896 1722.96 524.499 1723.78 514.311L1726.41 479.253ZM1912.36 523.425C1910.93 542.577 1905.5 557.024 1896.09 566.765C1886.75 576.512 1874.25 580.8 1858.6 579.629C1842.83 578.449 1831.01 572.31 1823.16 561.211C1815.31 550.113 1812.09 535.052 1813.52 516.03L1815.45 490.126C1816.89 470.974 1822.28 456.524 1831.62 446.778C1841.03 437.036 1853.6 432.753 1869.31 433.928C1885.02 435.104 1896.8 441.241 1904.65 452.339C1912.51 463.438 1915.72 478.53 1914.29 497.618L1912.36 523.425ZM1881.79 490.878C1882.56 480.685 1881.79 472.989 1879.5 467.791C1877.22 462.528 1873.19 459.68 1867.41 459.248C1861.76 458.825 1857.47 460.854 1854.52 465.334C1851.64 469.819 1849.75 476.794 1848.84 486.258L1846.13 522.485C1845.34 533.068 1846.09 540.925 1848.38 546.059C1850.68 551.127 1854.72 553.877 1860.5 554.31C1866.08 554.727 1870.38 552.666 1873.4 548.126C1876.42 543.521 1878.34 536.124 1879.17 525.936L1881.79 490.878ZM2067.75 535.049C2066.31 554.201 2060.89 568.648 2051.48 578.39C2042.13 588.136 2029.64 592.424 2013.99 591.254C1998.21 590.074 1986.4 583.934 1978.55 572.836C1970.69 561.737 1967.48 546.677 1968.9 527.654L1970.84 501.75C1972.27 482.598 1977.66 468.149 1987.01 458.402C1996.42 448.66 2008.98 444.377 2024.69 445.553C2040.4 446.728 2052.19 452.865 2060.04 463.964C2067.89 475.062 2071.1 490.155 2069.68 509.242L2067.75 535.049ZM2037.18 502.502C2037.94 492.309 2037.18 484.614 2034.89 479.416C2032.61 474.153 2028.58 471.305 2022.8 470.873C2017.15 470.45 2012.85 472.479 2009.91 476.959C2007.03 481.444 2005.13 488.419 2004.23 497.883L2001.52 534.11C2000.73 544.692 2001.48 552.55 2003.77 557.683C2006.07 562.751 2010.11 565.502 2015.88 565.934C2021.47 566.352 2025.77 564.29 2028.78 559.75C2031.8 555.145 2033.73 547.749 2034.56 537.56L2037.18 502.502ZM2223.13 546.674C2221.7 565.826 2216.28 580.273 2206.87 590.014C2197.52 599.761 2185.02 604.049 2169.38 602.878C2153.6 601.698 2141.78 595.559 2133.93 584.46C2126.08 573.362 2122.86 558.301 2124.29 539.279L2126.23 513.375C2127.66 494.223 2133.05 479.773 2142.39 470.027C2151.81 460.285 2164.37 456.002 2180.08 457.177C2195.79 458.353 2207.57 464.49 2215.43 475.588C2223.28 486.687 2226.49 501.78 2225.06 520.867L2223.13 546.674ZM2192.56 514.127C2193.33 503.934 2192.56 496.238 2190.28 491.04C2187.99 485.777 2183.96 482.929 2178.19 482.497C2172.54 482.075 2168.24 484.103 2165.29 488.584C2162.41 493.069 2160.52 500.043 2159.61 509.507L2156.9 545.734C2156.11 556.317 2156.86 564.174 2159.16 569.308C2161.45 574.376 2165.49 577.126 2171.27 577.559C2176.85 577.976 2181.15 575.915 2184.17 571.375C2187.19 566.77 2189.11 559.373 2189.94 549.185L2192.56 514.127ZM2378.52 558.298C2377.09 577.45 2371.66 591.897 2362.25 601.639C2352.9 611.385 2340.41 615.673 2324.76 614.503C2308.99 613.323 2297.17 607.183 2289.32 596.085C2281.47 584.986 2278.25 569.926 2279.67 550.903L2281.61 524.999C2283.04 505.847 2288.43 491.398 2297.78 481.651C2307.19 471.91 2319.75 467.626 2335.47 468.802C2351.18 469.977 2362.96 476.114 2370.81 487.213C2378.66 498.311 2381.88 513.404 2380.45 532.491L2378.52 558.298ZM2347.95 525.751C2348.71 515.558 2347.95 507.863 2345.66 502.665C2343.38 497.402 2339.35 494.554 2333.57 494.122C2327.92 493.699 2323.63 495.728 2320.68 500.208C2317.8 504.693 2315.9 511.668 2315 521.132L2312.29 557.359C2311.5 567.941 2312.25 575.799 2314.54 580.932C2316.84 586.001 2320.88 588.751 2326.66 589.183C2332.24 589.601 2336.54 587.54 2339.56 582.999C2342.58 578.394 2344.5 570.998 2345.33 560.81L2347.95 525.751ZM2533.9 569.923C2532.47 589.075 2527.05 603.522 2517.64 613.263C2508.29 623.01 2495.79 627.298 2480.15 626.127C2464.37 624.947 2452.56 618.808 2444.7 607.709C2436.85 596.611 2433.64 581.55 2435.06 562.528L2437 536.624C2438.43 517.472 2443.82 503.022 2453.17 493.276C2462.58 483.534 2475.14 479.251 2490.85 480.426C2506.56 481.602 2518.35 487.739 2526.2 498.837C2534.05 509.936 2537.26 525.029 2535.84 544.116L2533.9 569.923ZM2503.34 537.376C2504.1 527.183 2503.34 519.487 2501.05 514.289C2498.77 509.026 2494.74 506.178 2488.96 505.746C2483.31 505.324 2479.01 507.352 2476.07 511.833C2473.18 516.318 2471.29 523.292 2470.39 532.756L2467.68 568.983C2466.89 579.566 2467.64 587.423 2469.93 592.557C2472.23 597.625 2476.26 600.375 2482.04 600.808C2487.63 601.225 2491.92 599.164 2494.94 594.624C2497.96 590.019 2499.89 582.622 2500.71 572.434L2503.34 537.376ZM2689.29 581.547C2687.86 600.699 2682.44 615.146 2673.02 624.888C2663.68 634.635 2651.18 638.923 2635.53 637.752C2619.76 636.572 2607.94 630.432 2600.09 619.334C2592.24 608.235 2589.02 593.175 2590.45 574.153L2592.38 548.248C2593.82 529.096 2599.21 514.647 2608.55 504.9C2617.96 495.159 2630.53 490.875 2646.24 492.051C2661.95 493.226 2673.73 499.363 2681.58 510.462C2689.44 521.56 2692.65 536.653 2691.22 555.74L2689.29 581.547ZM2658.72 549C2659.49 538.807 2658.72 531.112 2656.44 525.914C2654.15 520.651 2650.12 517.803 2644.34 517.371C2638.7 516.948 2634.4 518.977 2631.45 523.457C2628.57 527.942 2626.68 534.917 2625.77 544.381L2623.06 580.608C2622.27 591.19 2623.02 599.048 2625.31 604.181C2627.61 609.25 2631.65 612 2637.43 612.432C2643.01 612.85 2647.31 610.789 2650.33 606.248C2653.35 601.643 2655.27 594.247 2656.1 584.059L2658.72 549ZM2844.68 593.172C2843.24 612.324 2837.82 626.771 2828.41 636.512C2819.06 646.259 2806.57 650.547 2790.92 649.377C2775.14 648.196 2763.33 642.057 2755.48 630.958C2747.62 619.86 2744.41 604.799 2745.83 585.777L2747.77 559.873C2749.2 540.721 2754.59 526.271 2763.94 516.525C2773.35 506.783 2785.91 502.5 2801.62 503.675C2817.34 504.851 2829.12 510.988 2836.97 522.086C2844.82 533.185 2848.04 548.278 2846.61 567.365L2844.68 593.172ZM2814.11 560.625C2814.87 550.432 2814.11 542.736 2811.82 537.538C2809.54 532.275 2805.51 529.427 2799.73 528.995C2794.08 528.573 2789.78 530.601 2786.84 535.082C2783.96 539.567 2782.06 546.541 2781.16 556.005L2778.45 592.232C2777.66 602.815 2778.41 610.672 2780.7 615.806C2783 620.874 2787.04 623.624 2792.81 624.057C2798.4 624.474 2802.7 622.413 2805.71 617.873C2808.73 613.268 2810.66 605.871 2811.49 595.683L2814.11 560.625ZM2970.02 660.816L2937.1 658.354L2944.94 553.569L2911.9 560.596L2913.77 535.666L2977.61 518.799L2980.63 519.025L2970.02 660.816ZM3125.4 672.441L3092.49 669.978L3100.33 565.193L3067.29 572.221L3069.15 547.29L3132.99 530.424L3136.01 530.65L3125.4 672.441Z" fill="#000E1B"/>
<path d="M706.371 1122.45C615.871 1075.95 532.371 928.121 488.371 827.954C441.371 711.454 441.271 447.154 816.871 321.954C1192.47 196.754 1345.04 481.454 1374.37 639.454C1382.77 849.854 1383.69 916.454 1342.87 967.454C1152.37 1205.47 823.854 1182.82 706.371 1122.45Z" fill="#E6CDBA" stroke="black" stroke-width="8"/>
<path d="M2434.8 1076.45C2510.92 1008.93 2555.08 834.487 2572.82 726.531C2589.41 602.007 2523.86 345.966 2128.93 317.985C1734 290.004 1656.93 603.677 1667.76 764.011C1711.89 969.904 1753.05 1042.74 1809 1076.45C2070.5 1234 2335.99 1164.1 2434.8 1076.45Z" fill="#E6CDBA" stroke="black" stroke-width="8"/>
<path d="M1160.91 799.357C1098.76 806.009 1067.08 759.32 1058 739.302C1084.23 705.118 1110.47 688.487 1160.91 660.77C1201.27 638.596 1259.79 676.168 1284 697.726C1268.87 728.831 1223.06 792.705 1160.91 799.357Z" fill="white" fill-opacity="0.8"/>
<path d="M1203 736.698C1199.1 771.558 1175.58 794 1144.98 794C1114.15 794 1089 768.582 1089 737.027C1089 719.938 1090.55 712.196 1097.23 704.305C1100.82 700.071 1106.06 695.615 1113.94 689.934C1121.53 684.468 1131.24 678.094 1143.81 669.844C1144.28 669.537 1144.75 669.226 1145.23 668.913C1161.77 658.055 1172.75 655.909 1179.87 657.445C1186.66 658.908 1191.73 664.144 1195.47 672.999C1199.23 681.875 1201.16 693.363 1202.11 705.128C1203.01 716.172 1203 727.01 1203 735.55C1203 735.938 1203 736.321 1203 736.698Z" fill="#492C21" stroke="#3A1E11" stroke-width="12"/>
<ellipse cx="1140" cy="719.5" rx="31" ry="40.5" fill="#2C1001"/>
<path d="M1084.04 725C1083.64 721.4 1086.21 713.5 1087.54 710C1141.08 649.5 1196 660.5 1197 661.5C1197.8 662.3 1202.67 677.167 1205 684.5C1161 684.5 1133.5 691 1084.04 725Z" fill="#2C1001" fill-opacity="0.9"/>
<path d="M1069.63 703.928C1096.83 674.542 1158.65 630.11 1219.3 655.59C1221.02 656.262 1222.59 656.974 1224 657.709C1222.43 656.955 1220.87 656.25 1219.3 655.59C1194.32 645.869 1136.96 644.763 1072.37 707.635C1072.14 707.865 1071.82 708 1071.49 708C1069.33 708 1068.17 705.509 1069.63 703.928Z" fill="#C7A389"/>
<path d="M1192.59 644.124C1129.94 646.949 1071 713.591 1058 740C1141.97 651.847 1174.25 659.858 1205.21 670.497C1226.36 677.761 1255.33 700.371 1274.55 718.907C1295.8 712.196 1341.34 660.423 1317.05 676.722C1292.77 693.021 1277.09 681.805 1274.55 680.557C1247.23 667.134 1239.14 642.025 1192.59 644.124Z" fill="#2C1001"/>
<ellipse cx="1164" cy="703.988" rx="11.3666" ry="14.5306" transform="rotate(-2.54253 1164 703.988)" fill="#FAF6F6" fill-opacity="0.8"/>
<path d="M802 869C864.842 856.594 884.787 799.694 887.5 778C851.307 753.517 820.319 748.883 762.434 737.814C716.125 728.959 673.464 786.66 656.422 814.368C680.81 839.275 739.158 881.406 802 869Z" fill="white" fill-opacity="0.8"/>
<path d="M867.694 750.785C833.444 730.042 761.772 704.385 710.505 745.607C709.032 746.728 707.719 747.846 706.568 748.941C707.866 747.784 709.179 746.673 710.505 745.607C731.832 729.373 786.661 712.487 866.083 755.104C866.373 755.26 866.721 755.301 867.037 755.21C869.108 754.616 869.537 751.901 867.694 750.785Z" fill="#C7A389"/>
<path d="M739.531 823.431C754.029 855.145 783.941 869.46 814.067 860.189C844.445 850.841 861.085 819.087 851.413 789.357C846.154 773.193 842.271 766.361 833.319 760.907C828.504 757.974 821.997 755.327 812.527 752.318C803.418 749.423 791.952 746.308 777.118 742.278C776.564 742.127 776.005 741.975 775.442 741.822C755.913 736.516 744.42 737.76 737.82 741.418C731.535 744.901 728.206 751.443 727.277 760.904C726.342 770.42 727.983 781.865 730.676 793.286C733.204 804.008 736.545 814.266 739.18 822.355C739.299 822.718 739.415 823.077 739.531 823.431Z" fill="#492C21" stroke="#3A1E11" stroke-width="12"/>
<ellipse rx="31.726" ry="40.3398" transform="matrix(-0.955772 0.294108 0.309372 0.950941 795.992 788.147)" fill="#2C1001"/>
<path d="M853 776.5C849.5 765.5 841.383 759.414 839 756.5C766.5 718 723.034 749.119 722.364 750.367C721.828 751.366 721.649 766.912 721.626 774.56C764.665 761.317 794.145 759.182 853 776.5Z" fill="#2C1001"/>
<path d="M726.321 731.582C788.475 715.4 862.5 753.5 888 778.5C791 732.22 749.5 746.5 722.097 760.363C701.794 770.634 682.285 803.743 669.19 827.087C646.335 827.126 585.84 791.794 614.618 799.922C643.396 808.05 655.271 792.709 657.372 790.762C679.961 769.824 680.141 743.605 726.321 731.582Z" fill="#2C1001"/>
<ellipse rx="11.2576" ry="13.9446" transform="matrix(-0.955772 0.294108 0.309372 0.950941 819.367 777.307)" fill="#FAF6F6" fill-opacity="0.8"/>
<path d="M1928.21 841.02C1990.69 842.765 2018.52 792.17 2026 771.5C1997.16 739.484 1969.79 726.527 1917.32 702.862C1875.34 683.93 1819.96 725.987 1797.52 749.382C1807.92 773.06 1865.73 839.275 1928.21 841.02Z" fill="white" fill-opacity="0.8"/>
<path d="M1881.33 781.865C1887.96 816.31 1913.17 836.833 1943.67 834.428C1974.41 832.004 1997.48 804.687 1995 773.23C1993.66 756.193 1991.5 748.597 1984.22 741.256C1980.32 737.317 1974.74 733.287 1966.43 728.244C1958.44 723.391 1948.26 717.8 1935.08 710.564C1934.59 710.294 1934.09 710.022 1933.59 709.748C1916.25 700.223 1905.14 698.947 1898.16 701.038C1891.51 703.03 1886.86 708.649 1883.83 717.771C1880.78 726.915 1879.75 738.519 1879.73 750.322C1879.71 761.403 1880.56 772.207 1881.24 780.72C1881.27 781.107 1881.3 781.488 1881.33 781.865Z" fill="#492C21" stroke="#3A1E11" stroke-width="12"/>
<ellipse rx="31" ry="40.5" transform="matrix(-0.996904 0.0786228 0.0786228 0.996904 1942.78 759.767)" fill="#2C1001"/>
<path d="M1999 760.85C1999.11 757.229 1995.93 749.556 1994.33 746.171C1936.2 690.068 1882.32 705.352 1881.4 706.427C1880.66 707.288 1876.98 722.491 1875.23 729.985C1919.09 726.526 1947.02 730.844 1999 760.85Z" fill="#2C1001"/>
<path d="M2011.71 738.71C1982.28 711.554 1917.16 672.119 1858.71 702.289C1857.04 703.094 1855.53 703.928 1854.18 704.772C1855.69 703.897 1857.19 703.07 1858.71 702.289C1882.84 690.634 1939.94 685.022 2009.27 742.621C2009.52 742.832 2009.85 742.941 2010.18 742.915C2012.33 742.746 2013.29 740.171 2011.71 738.71Z" fill="#C7A389"/>
<path d="M1884.43 688.758C1947.11 686.648 2009.97 747.195 2025 772.5C1934.36 691.222 1896.91 710.553 1873.92 716.043C1852.17 721.233 1826.31 755.063 1808.6 775.053C1786.89 770.033 1737.42 722 1762.91 736.34C1788.4 750.679 1803.15 732.967 1805.58 731.523C1831.77 715.993 1837.86 690.325 1884.43 688.758Z" fill="#2C1001"/>
<ellipse rx="11" ry="14" transform="matrix(-0.996904 0.0786228 0.0786228 0.996904 1967.43 754.312)" fill="#FAF6F6" fill-opacity="0.8"/>
<path d="M2318.72 863.466C2254.66 863.548 2227.9 814.058 2221.01 793.309C2251.73 762.24 2280.39 748.533 2335.01 726.392C2378.71 708.679 2433.86 751.959 2455.98 775.812C2436.91 804.996 2382.77 863.383 2318.72 863.466Z" fill="white" fill-opacity="0.8"/>
<path d="M2234.3 759.634C2263.85 732.612 2329.14 693.475 2387.46 723.912C2389.13 724.725 2390.63 725.565 2391.97 726.415C2390.48 725.533 2388.97 724.7 2387.46 723.912C2363.38 712.147 2306.31 706.274 2236.72 763.556C2236.47 763.765 2236.13 763.873 2235.81 763.846C2233.66 763.667 2232.71 761.088 2234.3 759.634Z" fill="#C7A389"/>
<path d="M2374.17 805.902C2366.13 839.833 2339.58 859.705 2308.23 856.485C2276.61 853.239 2254.1 825.337 2257.79 794.292C2259.79 777.413 2262.27 769.955 2269.99 762.861C2274.14 759.045 2280 755.181 2288.71 750.383C2297.08 745.769 2307.72 740.478 2321.48 733.633C2321.99 733.377 2322.51 733.119 2323.03 732.859C2341.15 723.848 2352.67 722.827 2359.86 725.128C2366.7 727.319 2371.24 733.087 2374 742.185C2376.77 751.337 2377.39 762.882 2376.97 774.609C2376.58 785.618 2375.31 796.33 2374.3 804.778C2374.25 805.157 2374.21 805.532 2374.17 805.902Z" fill="#492C21" stroke="#2C1001" stroke-width="12"/>
<ellipse rx="31.726" ry="40.3398" transform="matrix(0.99477 0.102144 -0.118056 0.993007 2311.91 782.301)" fill="#2C1001"/>
<path d="M2254.29 781.892C2254.31 778.289 2257.85 770.744 2259.62 767.421C2321.24 713.179 2375.86 729.8 2376.76 730.893C2377.48 731.768 2380.69 746.981 2382.2 754.478C2337.4 749.879 2308.64 753.433 2254.29 781.892Z" fill="#2C1001"/>
<path d="M2369.22 713.24C2305.1 709.485 2246 751 2219.97 792.429C2304.87 722.604 2348.69 726.885 2378.97 740.645C2399.64 750.039 2426.48 775.432 2443.87 795.775C2466.29 791.358 2518.74 744.911 2492.1 758.493C2465.46 772.075 2450.82 759.344 2448.38 757.843C2422.14 741.711 2416.85 716.03 2369.22 713.24Z" fill="#2C1001"/>
<ellipse rx="11.2576" ry="13.9446" transform="matrix(0.999869 -0.0161634 0.000154128 1 2291.84 770.997)" fill="#FAF6F6" fill-opacity="0.8"/>
<path d="M1053.43 1025.21C1070.66 1021.06 1103.44 992.287 1114.43 977.177C1071.14 990.822 1007.72 1001.16 983.75 1005.57C982.155 1005.96 979.006 1004.09 986.034 1008.06C994.82 1013.02 1031.9 1030.38 1053.43 1025.21Z" fill="#D78989"/>
<path d="M1059.29 971.662C1070.73 968.909 1098.8 972.809 1111.41 975.103C1078.54 992.259 986.607 1005.12 982.25 1004.48C1001.36 996.525 1044.98 975.103 1059.29 971.662Z" fill="#D27979"/>
<path d="M1114.34 976.803C1116.73 975.534 1113.95 975.158 1110.76 975.923C1093.67 981.774 1071.41 990.609 1073.8 990.036C1076.18 989.462 1111.36 978.391 1114.34 976.803Z" fill="#2F2C28"/>
<path d="M1110.76 975.923L1110.6 975.45C1110.62 975.445 1110.63 975.441 1110.65 975.437L1110.76 975.923ZM1114.34 976.803L1114.58 977.245L1114.34 976.803ZM1110.65 975.437C1112.26 975.048 1113.84 974.932 1114.74 975.11C1114.96 975.154 1115.19 975.226 1115.38 975.354C1115.58 975.492 1115.77 975.74 1115.73 976.084C1115.7 976.369 1115.51 976.588 1115.33 976.743C1115.15 976.91 1114.89 977.077 1114.58 977.245L1114.11 976.362C1114.39 976.213 1114.56 976.09 1114.67 975.997C1114.79 975.891 1114.75 975.878 1114.74 975.961C1114.72 976.104 1114.82 976.18 1114.81 976.177C1114.79 976.163 1114.72 976.125 1114.54 976.091C1113.85 975.954 1112.45 976.033 1110.88 976.409L1110.65 975.437ZM1114.58 977.245C1114.17 977.463 1113.25 977.822 1112.01 978.274C1110.75 978.732 1109.12 979.298 1107.24 979.934C1103.48 981.205 1098.73 982.756 1094 984.276C1084.54 987.31 1075.13 990.229 1073.91 990.522L1073.68 989.549C1074.85 989.268 1084.21 986.366 1093.69 983.324C1098.42 981.805 1103.17 980.255 1106.92 978.986C1108.8 978.352 1110.42 977.788 1111.67 977.334C1112.93 976.875 1113.77 976.541 1114.11 976.362L1114.58 977.245ZM1073.91 990.522C1073.84 990.538 1073.74 990.562 1073.64 990.562C1073.61 990.562 1073.56 990.561 1073.49 990.542C1073.44 990.527 1073.27 990.469 1073.17 990.278C1073.07 990.069 1073.14 989.883 1073.18 989.813C1073.22 989.741 1073.26 989.694 1073.28 989.675C1073.36 989.605 1073.46 989.55 1073.51 989.521C1073.58 989.48 1073.67 989.434 1073.78 989.383C1074.21 989.178 1074.96 988.853 1075.97 988.434C1077.99 987.592 1081.09 986.357 1084.79 984.922C1092.2 982.053 1102.05 978.379 1110.6 975.45L1110.93 976.396C1102.39 979.319 1092.56 982.988 1085.16 985.855C1081.46 987.288 1078.37 988.52 1076.35 989.357C1075.34 989.777 1074.61 990.093 1074.21 990.285C1074.11 990.333 1074.04 990.37 1073.99 990.398C1073.92 990.436 1073.94 990.432 1073.98 990.397C1073.99 990.387 1074.03 990.347 1074.06 990.281C1074.1 990.219 1074.17 990.038 1074.07 989.833C1073.97 989.646 1073.81 989.592 1073.76 989.579C1073.7 989.563 1073.66 989.562 1073.64 989.562C1073.6 989.562 1073.6 989.569 1073.68 989.549L1073.91 990.522Z" fill="#2C1001"/>
<path d="M982.914 1005.97C980.077 1005.68 982.01 1003.21 985.106 1002.2C1003.03 999.393 1027.27 997.577 1024.95 998.337C1022.63 999.096 986.46 1006.34 982.914 1005.97Z" fill="#2F2C28"/>
<path d="M985.106 1002.2L985.029 1001.71C985.003 1001.71 984.976 1001.72 984.951 1001.72L985.106 1002.2ZM982.914 1005.97L982.965 1005.47L982.965 1005.47L982.914 1005.97ZM984.951 1001.72C983.345 1002.25 981.97 1003.17 981.368 1004.08C981.07 1004.53 980.878 1005.12 981.193 1005.65C981.488 1006.16 982.114 1006.39 982.862 1006.47L982.965 1005.47C982.295 1005.41 982.098 1005.22 982.055 1005.15C982.031 1005.11 981.984 1004.96 982.202 1004.63C982.632 1003.98 983.771 1003.16 985.262 1002.67L984.951 1001.72ZM982.862 1006.47C983.373 1006.52 984.386 1006.44 985.704 1006.28C987.046 1006.11 988.766 1005.85 990.732 1005.53C994.664 1004.89 999.596 1004 1004.49 1003.07C1009.38 1002.14 1014.23 1001.17 1018 1000.39C1021.76 999.615 1024.49 999.013 1025.11 998.812L1024.8 997.861C1024.25 998.04 1021.59 998.628 1017.8 999.412C1014.03 1000.19 1009.18 1001.16 1004.3 1002.09C999.413 1003.02 994.491 1003.91 990.571 1004.55C988.611 1004.87 986.905 1005.12 985.582 1005.28C984.234 1005.45 983.341 1005.51 982.965 1005.47L982.862 1006.47ZM1025.11 998.812C1025.15 998.797 1025.2 998.779 1025.25 998.758C1025.29 998.741 1025.36 998.707 1025.42 998.651C1025.47 998.61 1025.65 998.436 1025.6 998.155C1025.55 997.903 1025.35 997.799 1025.31 997.778C1025.2 997.72 1025.06 997.702 1024.99 997.693C1024.9 997.682 1024.79 997.674 1024.66 997.67C1024.16 997.651 1023.32 997.672 1022.2 997.726C1019.97 997.834 1016.59 998.078 1012.58 998.433C1004.56 999.143 994.006 1000.3 985.029 1001.71L985.184 1002.69C994.132 1001.29 1004.66 1000.14 1012.67 999.429C1016.67 999.074 1020.03 998.832 1022.25 998.725C1023.36 998.671 1024.17 998.652 1024.62 998.669C1024.74 998.673 1024.82 998.679 1024.87 998.686C1024.95 998.695 1024.92 998.7 1024.86 998.67C1024.84 998.663 1024.66 998.574 1024.62 998.338C1024.57 998.074 1024.74 997.917 1024.77 997.895C1024.79 997.873 1024.81 997.861 1024.82 997.856C1024.83 997.853 1024.83 997.851 1024.83 997.849C1024.83 997.848 1024.84 997.847 1024.84 997.847C1024.84 997.847 1024.83 997.849 1024.83 997.851C1024.82 997.854 1024.81 997.857 1024.8 997.861L1025.11 998.812Z" fill="#2C1001"/>
<path d="M1069.04 1018.76C1062.38 1018.96 1047.76 1020.51 1042.61 1025.12C1036.16 1030.88 1065.29 1021.77 1069.04 1018.76Z" fill="#2F2C28" stroke="#2C1001" stroke-linejoin="round"/>
<path d="M1045 896.5L1012.59 838L1012.59 905.028L1045 896.5Z" fill="#C7A389"/>
<path d="M1011.01 906.035L1036.39 884.685L1050.65 897.347L1011.01 906.035Z" fill="#2C1001"/>
<path d="M2095.54 925.664L2123.04 850.601L2113 917.376L2095.54 925.664Z" fill="#C7A389"/>
<path d="M2136.21 932.045L2113.5 911.5L2096.12 925.732L2136.21 932.045Z" fill="#2C1001"/>
<ellipse cx="754" cy="967.5" rx="137" ry="57.5" fill="#E4C8B3"/>
<ellipse cx="1282.44" cy="858.38" rx="113.193" ry="47.4249" transform="rotate(-18.8045 1282.44 858.38)" fill="#E4C8B3"/>
<ellipse cx="1827.35" cy="933.671" rx="123.576" ry="51.866" transform="rotate(13.7071 1827.35 933.671)" fill="#E4C8B3"/>
<ellipse cx="2379.04" cy="968.59" rx="113.193" ry="47.4249" transform="rotate(-11.0249 2379.04 968.59)" fill="#E4C8B3"/>
<path d="M681 977.5C653 928.5 608 930 572.5 794L564 815.34C580.5 917.5 608.584 979.751 620.5 996C653.5 1041 681 1116 688 1138L735.5 1201.5C725.5 1182 749 1076 681 977.5Z" fill="#55260C"/>
<path d="M673.5 463C733.9 411.8 853 421.833 886.5 432.5C937.5 397.667 1027.9 336.7 1129.5 377.5C1256.5 428.5 1324.5 699 1307 878.5C1293 1022.1 1307 1048 1307 1069.5C1326.5 1221.5 1424 1313 1525 1319C1605.8 1323.8 1626.33 1271.67 1626.5 1245C1623.3 1269.8 1594.17 1281.33 1580 1284C1412.5 1284 1630.5 983.5 1525 935C1419.5 886.5 1485 593.5 1346.5 377.5C1208 161.5 1002.5 161 936.5 174.5C870.5 188 834.999 221.5 795.999 229C756.999 236.5 646.545 186.5 499 338.5C378.149 463 361.5 632.5 384.5 726C403.687 804 388.499 905.5 398.499 1100.5C408.499 1295.5 501.999 1317 554.499 1354C587.135 1377 636.999 1480.5 530.999 1527.5C446.199 1565.1 419.999 1478.5 417.499 1430.5C422.299 1594.5 575.166 1574.5 650.999 1544C841.999 1484.5 785.999 1251.5 709.999 1165C633.999 1078.5 605.499 950 574.999 804C544.499 658 598 527 673.5 463Z" fill="#55260C"/>
<path d="M668 416.5C738.549 361.105 830.995 387.694 886.5 432.5C807.651 426.899 766.727 440.785 766.727 440.785C693.066 473.37 682.691 531.923 647.936 668.375C628.283 745.532 569.26 764.943 539 759.003C634.498 703.506 539 517.792 668 416.5Z" fill="#471B02"/>
<path d="M1043.24 664.822C1037.29 664.811 1025.91 633.908 1039.38 628C1064.17 617.13 1151.8 566.937 1195.96 578.853C1231.29 588.386 1270.42 601.877 1281 620.346C1266.81 607.219 1238.78 613.252 1196.01 607.808C1142.55 601.002 1046.48 664.828 1043.24 664.822Z" fill="#55260C"/>
<path d="M866 705C866 705 874.045 670.42 859.297 668.589C835.89 660.591 717.141 656.926 675.999 683C644.786 702.781 618.465 718.428 599.999 749C610.043 732.372 663.983 712.09 683.499 705C736.737 685.661 866 705 866 705Z" fill="#55260C"/>
<path d="M2227.6 693.519C2221.93 691.713 2220.4 658.818 2235.03 657.248C2261.94 654.359 2360.63 632.93 2399.14 657.61C2429.95 677.354 2483.86 707.394 2488.37 728.194C2428.33 695.83 2391.41 682.577 2391.41 682.577C2342.5 659.966 2230.69 694.5 2227.6 693.519Z" fill="#6E3F25"/>
<path d="M2038.7 682.747C2038.7 682.747 2056.6 652.09 2043.06 645.981C2023.06 631.423 1910.7 592.822 1863.69 605.57C1828.02 615.241 1798.25 622.409 1771.58 646.157C1786.09 633.24 1843.61 629.808 1864.35 628.804C1920.93 626.065 2038.7 682.747 2038.7 682.747Z" fill="#6E3F25"/>
<path d="M1130.5 357C985.182 281.933 902.015 377.23 886.5 432.5C1003.87 366.008 1051 411 1118 504C1195.1 611.019 1285.5 703 1362 703C1206.5 617 1252.82 420.19 1130.5 357Z" fill="#471B02"/>
<path d="M350.421 807C341.349 709 377.839 574.589 399.553 504C410.035 509.953 424.711 532.882 399.553 576.971C368.105 632.081 366.964 756 366.964 791C366.964 849.5 408.038 964.276 431 1019.9L426.508 1025C413.03 1010.71 359.493 905 350.421 807Z" fill="#55260C"/>
<path d="M674.5 1153C628.5 1064.5 621 1002.83 604 940.5C616.139 981.833 647.2 1061.72 654.5 1074C665.5 1092.5 763 1218 769.5 1251.5C797.5 1341 791.653 1428 743.5 1484.5C713.5 1519.7 667 1538.5 651.5 1543.5L696.5 1484.5C789 1384.5 689.305 1181.48 674.5 1153Z" fill="#471B02"/>
<path d="M811 1376.07C832.223 1313.77 766.5 1231.5 754 1231.5C794 1321.5 811 1343 792 1396.5C782.814 1422.37 769.333 1440.67 754.5 1458C773.167 1447.5 790.57 1436.04 811 1376.07Z" fill="#471B02"/>
<path d="M1249.09 238.71C1160.49 190.185 1073.45 186.142 1041 190.185C1196.03 210.037 1261.96 256.356 1306.77 313.703C1342.62 359.581 1375.28 446.595 1386.61 521.037L1400 526C1386.61 450.456 1366.52 303.034 1249.09 238.71Z" fill="#55260C"/>
<path d="M1477.5 886.5C1484 768 1466.22 716.756 1438.16 651C1428.93 662.977 1430.04 661.979 1430.04 661.979C1453.32 718.373 1474.56 761 1464.5 878L1477.5 886.5Z" fill="#55260C"/>
<path d="M570 1346C486 1287.5 396.5 1203.5 459 1037.5C499 1211 528.999 1260.5 575.999 1314C613.599 1356.8 624.833 1376.83 623 1383.5C628.6 1438.3 592.166 1486 575.999 1501C621.199 1455 603.5 1369.33 570 1346Z" fill="#471B02"/>
<path d="M1468 924.5C1442.29 911.583 1462.96 784.5 1426.5 609C1426.5 754 1394.37 929.625 1433.03 963.625C1467 993.5 1459.5 1021.17 1455.46 1044C1422.96 1174.5 1503.18 1251.02 1524 1265.5C1468 1156 1507 1029.32 1507 987.565C1507 973.5 1500.13 940.646 1468 924.5Z" fill="#471B02"/>
<path d="M926.5 207C891.7 206.2 844.333 231.667 825 244.5C823 248.5 813.5 249.833 809 250C767 236.4 717.5 253.333 698 263.5C742.4 248.3 795.5 253.833 816.5 258.5C767.3 254.5 731.333 264.833 719.5 270.5C771.9 260.9 816 266.5 831.5 270.5C755.5 263.7 707.5 291 693 305.5C781.8 272.3 830 276.333 843 282.5C811.8 276.5 784 289.333 774 296.5C796.4 286.5 841.667 292.333 861.5 296.5C867.5 286.5 916 280.667 939.5 279C927.9 270.2 880 277.667 857.5 282.5C890.3 256.9 1008.17 253.167 1063 254.5C995.4 228.9 890.167 252.167 846 267C876.4 246.2 940 234.667 968 231.5C937.2 216.7 869.833 240.667 840 254.5C849.2 237.3 901.5 215.667 926.5 207Z" fill="#471B02"/>
<path d="M400 636.001C385.5 487 458.5 360.982 561.5 288.5C583.1 273.3 631.334 256 632 259C608.5 268 512.5 360.501 464.5 459.501C416.5 558.501 451.5 664 446 729.5C441.6 781.901 430.5 802.5 400 887.5C400 876.5 400.9 838.9 404.5 774.5C408.1 710.1 400 668.001 400 636.001Z" fill="#471B02"/>
<path d="M1322.51 428.074C1291.88 306.222 1168.07 244.586 1110 229C1257.81 262.333 1360.61 360.944 1378.55 416.5C1424.56 494.371 1382.92 701.876 1399.3 755.599C1399.7 756.735 1400.1 757.869 1400.5 759C1400.07 757.947 1399.67 756.812 1399.3 755.599C1370.8 673.941 1360.27 578.298 1322.51 428.074Z" fill="#471B02"/>
<path d="M2077.76 667.715C1983.59 632.463 1931.72 527.396 1917.56 479.269C1907.2 482.317 1912.23 510.412 1911.5 528C1915.58 606.155 1958.5 657.5 1980.5 682.5C1884.5 649.5 1872.46 546.221 1877.75 490.982C1858.68 582.067 1826.64 653.862 1813.01 678.374C1821.19 653.035 1838.09 515.236 1830 535.845C1794 627.5 1788.62 682.482 1749 748.088C1754.14 717.388 1768.55 651.845 1769.63 621.295C1760.74 654.836 1743.09 728.758 1743.63 756.116C1744.31 790.315 1770.91 1118.75 1844.4 1303C1917.89 1487.25 1860.6 1636.96 1850.5 1654C1842.42 1667.64 1847.97 1712.13 1850.5 1722.5C1840.61 1722.91 1812.22 1711.43 1808.58 1708.51C1793.42 1703.06 1788.46 1673.77 1776.35 1671.6C1764.25 1669.43 1753.83 1646.43 1737.66 1633.99C1721.49 1621.55 1671.98 1648.11 1654.93 1629.15C1641.3 1613.98 1626.96 1460.86 1621.5 1386.2L1593.66 1102.01L1576.05 748.088C1579.01 416.26 1690.38 314.7 1763.06 281.85C1835.74 249 1902.87 252.183 1937.41 242.022C1971.94 231.861 2064.49 165.545 2164.55 163.731C2264.6 161.917 2470.3 143.615 2622.16 441.881C2774.02 740.147 2658.12 920.178 2659.48 1015.16C2660.84 1110.13 2570.64 1510.36 2564.18 1527.38C2557.72 1544.39 2550.49 1560.59 2527.58 1573.07C2504.67 1585.54 2498.44 1587.37 2484.84 1604.93C2471.24 1622.48 2451.77 1618.3 2416.44 1650.59C2388.18 1676.41 2306.72 1695.72 2269.52 1702.15C2306.94 1664.56 2251.82 1510.87 2293.26 1400.17C2334.7 1289.48 2506.95 859.892 2515.05 770.472C2521.52 698.937 2509.84 672.458 2503.19 668.16L2449.24 663.706L2437.24 649.514L2442.04 665.823C2408.99 663.907 2339.34 659.347 2325.14 656.436C2310.94 653.526 2252.48 604.326 2225.02 580.09C2236.13 602.256 2285.39 638.249 2308.63 653.475C2247.93 655.489 2150 601.466 2108.63 574.202C2147.07 621.265 2224.69 651.591 2258.69 660.872C2106.61 669.755 2016.01 564.099 1989.72 510.16C2010.15 579.617 2071.19 646.543 2099.15 671.325C2094.86 670.919 2083.11 668.749 2077.76 667.715Z" fill="#8B5639"/>
<path d="M2406.18 382.591C2282.28 235.039 2054.88 256.146 1956.67 285.143C1927.21 298.642 1944.52 303.433 1956.86 304.142C2002.23 290.963 2125.42 279.009 2254.98 314.62C2384.55 350.231 2491.48 510.733 2545.6 620.19C2545.6 620.19 2530.08 530.142 2406.18 382.591Z" fill="#6F3F25"/>
<path d="M2305 371.5C2236.97 289.785 2084.5 284.5 2003 284.5C1949.09 293.447 1964.9 307.894 1987.41 308.832C2237.04 320.302 2272.21 386.449 2289.35 400.276C2300.87 409.568 2399.6 522.331 2450.84 595.649L2449.94 594.006C2398.21 499.462 2372.64 452.745 2305 371.5Z" fill="#6F3F25"/>
<path d="M2257.53 467.102C2158.17 293.701 2006.63 281.303 1943.29 296.779C1929.75 302.917 1924.42 310.138 1923.45 312.981C1864.92 379.178 1848.8 446.078 1848.05 471.253C1868.94 401.438 1900.58 358.715 1913.79 346.081C1890.18 385.522 1886.62 428.36 1887.79 444.849C1890.52 418.82 1927.79 329.483 1943.51 318.292C1954.92 310.162 1956.94 311.641 1956.94 311.641C1956.94 311.641 1965.42 309.941 1959.54 321.601C1953.66 333.261 1961.05 371.603 1963.73 389.577C1979.88 444.216 2015.18 482.893 2030.81 495.402C1980.03 419.113 1974.13 347.302 1977.53 320.933L1988.53 320.822C2020.99 405.297 2089.53 467.805 2119.74 488.5C1993.97 364.269 2008.39 306.12 2013.95 312.063C2018.39 316.819 2041.43 342.786 2052.39 355.176C2118.32 426.911 2154.55 452.979 2164.42 457.045C2139 434.902 2059.47 347.104 2022.88 305.973C2031.67 304.683 2066.31 314.699 2082.53 319.869C2131.05 331.777 2219.41 422.986 2257.53 467.102Z" fill="#6F3F25"/>
<path d="M1751.02 448.5C1797.44 292.521 1901.98 291.593 1944 293C1979.42 287.141 1965.87 305.051 1950.92 309.702C1935.97 314.354 1881.16 319.096 1841.5 353C1801.84 386.904 1763.49 467.112 1752.5 541C1742.67 607.103 1737.75 661.947 1732.79 715C1713.39 577.69 1740.87 482.605 1751.02 448.5Z" fill="#6F3F25"/>
<path d="M1944.96 264.76C1988.26 244.82 2096.57 205.22 2183.38 206.34C2270.2 207.46 2345.33 249.201 2372.04 269.931C2326.34 250.893 2215.14 211.319 2146.07 225.22C2078.51 238.819 2077.25 240.356 2041.73 249.203C2074.15 241.368 2143.58 232.775 2168.24 241.496C2127.1 244.413 1993.47 275.369 1945.22 290.259L1944.96 264.76Z" fill="#6F3F25"/>
<path d="M1771.41 310.022C1819.08 276.737 1900.98 266.706 1935.97 265.852L1947.26 293.739L1909.2 288.124C1860.43 291.819 1809.94 328.466 1790.78 346.328C1794.27 335.492 1805.38 323.345 1810.5 318.626C1841.48 296.311 1889.15 282.994 1909.11 279.125C1857.97 285.643 1817.34 302.223 1803.41 309.698C1768.34 322.454 1718.75 376.059 1698.33 401.268C1702.83 384.721 1723.75 343.307 1771.41 310.022Z" fill="#6F3F25"/>
<path d="M2352.52 1430.06C2351.69 1348.82 2418.46 1137.25 2441.52 1007.26C2400.25 1169.7 2322.8 1340.43 2318.07 1366.57C2312.16 1399.24 2312.08 1428.04 2313.16 1461.68C2314.02 1488.6 2314.63 1534.64 2309.93 1541.86C2313.42 1538.49 2352.98 1475.85 2352.52 1430.06Z" fill="#6F3F25"/>
<path d="M2561.13 1152.16C2580.71 1122.65 2638.32 886.051 2588.25 1126.07C2620.25 1077.24 2694.81 884.979 2666.13 818.266C2660.69 873.324 2643.3 934.003 2642.97 901.505C2641.98 803.392 2633.07 761.982 2634.53 791.773C2635.7 815.606 2622 883.548 2615.01 914.54C2607 756.862 2605.02 757.882 2597.45 800.961C2593.37 824.197 2581.86 912.921 2563.3 934.314C2552.76 930.421 2562.48 852.819 2562.14 819.32C2555.63 868.389 2523.45 956.368 2513.3 983.324C2509.12 934.491 2517.61 839.845 2512.31 837.616C2512.04 877.121 2408.01 1213.93 2425.13 1200.52C2442.24 1187.11 2497.61 1054.43 2500.69 1071.96C2503.78 1089.49 2466.75 1219.52 2478 1200.52C2496.69 1168.93 2539.79 1033.72 2540.44 1047.05C2540.97 1057.71 2510.04 1174.96 2511.27 1200.18C2533.73 1168.9 2576.23 1048.53 2580.89 992.639C2582.05 1106.63 2542.5 1180.21 2561.13 1152.16Z" fill="#6F3F25"/>
<path d="M1641.86 1015C1630.04 983.078 1606.11 726.246 1606.88 969.742C1595.29 900.557 1569.94 721.916 1593.49 634.112C1588.39 689.073 1599.36 769.511 1602.6 737.241C1612.08 642.728 1632.28 591.432 1625.67 620.518C1620.39 643.787 1626.63 748.639 1633.82 762.84C1656.01 580.261 1661.43 601.593 1660.33 645.085C1659.73 668.544 1653.91 757.517 1666.28 781.306C1672.18 734.217 1674.27 687.794 1683.96 669.447C1687.3 773.977 1689.01 802.88 1693.06 830.897C1705.44 783.482 1703.84 723.071 1708.86 721.662C1718.49 883.716 1753.57 1045.82 1741.03 1030.09C1728.49 1014.36 1713.4 874.707 1707.57 891.494C1701.74 908.281 1694.23 867.717 1721.38 1058.36C1683.71 983.55 1668.4 847.895 1666.07 895.579C1665.54 906.197 1678.99 979.822 1673.4 1004.44C1659.39 970.352 1646.98 910.632 1636.63 851.022C1635.82 966.893 1653.1 1045.36 1641.86 1015Z" fill="#6F3F25"/>
<path d="M2101.71 1000.41L2043.65 999.222L2094.67 1031.15L2146.14 1029.54C2160.51 1019.76 2187.38 1001.24 2179.91 1005.48C2172.44 1009.71 2124.66 1003.87 2101.71 1000.41Z" fill="white"/>
<path d="M2069.93 1012.92L2040.12 998.332C2047.51 1005.29 2060.73 1023.01 2066.42 1031C2087.69 1064.33 2119.03 1061.77 2130.87 1057.59C2169.29 1034.33 2183.59 1013.46 2190.27 1001L2157.37 1018.37C2134.94 1031.32 2108.64 1024.79 2100.49 1025.04C2093.94 1025.25 2079.32 1017.53 2069.93 1012.92Z" fill="#D78989"/>
<path d="M2089.82 992.031C2082.59 990.967 2053.13 995.862 2040.12 998.418C2055.08 1006.01 2086.86 1002.04 2104.14 1005.29C2154.18 1014.69 2181.11 1007.46 2188.32 1002.66C2175.83 1004.13 2147.19 1005.88 2132.65 1001.18C2114.47 995.294 2098.86 993.362 2089.82 992.031Z" fill="#BE5C5C"/>
<path d="M2040.31 997.335C2045.06 998.036 2052.5 1002.9 2057 1007L2047.43 1003.9L2039.32 1000.76C2038.49 999.22 2038.76 997.107 2040.31 997.335Z" fill="#2F2C28" stroke="#2F2C28" stroke-linejoin="round"/>
<path d="M2189.82 1001.07C2188.63 1000.24 2177.96 1007.07 2174 1009.86C2174.4 1010.69 2181.25 1007.68 2183.39 1006.81C2186.03 1005.25 2191.01 1001.91 2189.82 1001.07Z" fill="#2F2C28" stroke="#2F2C28" stroke-linejoin="round"/>
<path d="M2066 1003L2048.5 1000.5L2056 1006.5L2067 1011.5C2064 1008.5 2057.5 1005.2 2057.5 1004C2057.5 1002.8 2064.5 1004 2066 1003Z" fill="#2F2C28" stroke="#2F2C28" stroke-linejoin="round"/>
<path d="M2182 1004.5C2179 1005.5 2163 1008.83 2157.5 1009.5C2158.7 1009.5 2165.5 1010 2168 1010C2171 1010 2172 1009.5 2170 1011L2161.5 1016.5C2172 1011.5 2182.5 1008.5 2182 1004.5Z" fill="#2F2C28" stroke="#2F2C28" stroke-linejoin="round"/>
<path d="M2116.5 1058.5C2114.1 1058.5 2106.5 1058.33 2103 1058C2098 1057.52 2101.67 1059.58 2102.5 1060C2105.67 1060.83 2112.9 1061.4 2116.5 1061C2121 1060.5 2129 1058.5 2127.5 1058.5H2116.5Z" fill="#2F2C28" stroke="#2F2C28"/>
<path d="M977.5 1697L855.614 1530C848.014 1502 858.781 1487.67 865.114 1484L1972.61 1486L2061.11 1701.5L977.5 1697Z" fill="#C4C4C4" stroke="black" stroke-width="8"/>
<path d="M984 1648.5L866 1490.5C858 1490.5 854.5 1519.5 860 1528L976 1687.5L984 1648.5Z" fill="#DDDDDD"/>
<path d="M1009.44 1067.01C1011.02 1043.92 1030.2 1026 1053.34 1026H2122.94C2149.14 1026 2169.54 1048.76 2166.68 1074.8L2100.72 1675.8C2098.27 1698.11 2079.42 1715 2056.98 1715H1012.38C986.904 1715 966.752 1693.43 968.484 1668.01L1009.44 1067.01Z" fill="#C4C4C4" stroke="black" stroke-width="8"/>
<path d="M1024.14 1092.58C1025.93 1067.46 1046.83 1048 1072.02 1048H2122.73C2144.2 1048 2160.9 1066.68 2158.5 1088.02L2093.29 1668.36C2090.56 1692.64 2070.03 1711 2045.59 1711H1031.55C1003.69 1711 981.687 1687.37 983.67 1659.58L1024.14 1092.58Z" fill="#DDDDDD"/>
<path d="M1787.12 1355.3L1787.73 1353.53L1786 1352.8L1558.84 1257.28L1556.99 1256.5L1556.22 1258.36L1471.12 1462.86L1470.51 1464.31L1471.78 1465.24L1499.33 1485.45L1501.12 1486.75L1502.24 1484.85L1532.61 1433.22L1613.66 1381.4L1770.31 1398.88L1771.9 1399.05L1772.42 1397.55L1787.12 1355.3Z" fill="white" stroke="#C5C5C5" stroke-width="4"/>
<circle cx="1559" cy="1273" r="54" fill="white" stroke="#C5C5C5" stroke-width="4"/>
<circle cx="1666.44" cy="1322.19" r="41.1862" fill="white" stroke="#C5C5C5" stroke-width="4"/>
<circle cx="1766.86" cy="1373.62" r="52.2073" fill="white" stroke="#C5C5C5" stroke-width="4"/>
<circle cx="1485.21" cy="1480.16" r="52.2073" fill="white" stroke="#C5C5C5" stroke-width="4"/>
<circle cx="1510" cy="1414" r="45" fill="white" stroke="#C5C5C5" stroke-width="4"/>
<circle cx="1529.29" cy="1347.91" r="39.9616" fill="white" stroke="#C5C5C5" stroke-width="4"/>
<path d="M1785.23 1354.64L1558.07 1259.12L1472.96 1463.63L1500.51 1483.83L1531.13 1431.79L1613.17 1379.34L1770.53 1396.89L1785.23 1354.64Z" fill="white"/>
<circle cx="1559" cy="1273" r="52" fill="white"/>
<circle cx="1666.44" cy="1322.19" r="39.1862" fill="white"/>
<circle cx="1766.86" cy="1373.62" r="50.2073" fill="white"/>
<circle cx="1485.21" cy="1480.16" r="50.2073" fill="white"/>
<circle cx="1510" cy="1414" r="43" fill="white"/>
<circle cx="1529.29" cy="1347.91" r="37.9616" fill="white"/>
<g filter="url(#filter0_i)">
<path d="M1752.9 1358.16L1562.06 1281.32L1485.22 1472.16" stroke="#000E1B" stroke-width="8"/>
<path d="M1534.19 1347.91L1753.39 1373.62" stroke="#000E1B" stroke-width="8" stroke-linecap="round" stroke-linejoin="round"/>
<line x1="1495.4" y1="1424.07" x2="1647.25" y2="1333.45" stroke="#000E1B" stroke-width="8"/>
<g filter="url(#filter1_i)">
<circle cx="1485.06" cy="1480.04" r="30.6142" transform="rotate(-23.4451 1485.06 1480.04)" fill="#67ADE0"/>
</g>
<circle cx="1485.06" cy="1480.04" r="30.6142" transform="rotate(-23.4451 1485.06 1480.04)" stroke="#000E1B" stroke-width="8"/>
<g filter="url(#filter2_i)">
<circle cx="1558.54" cy="1273.06" r="30.6142" transform="rotate(-23.4451 1558.54 1273.06)" fill="#67ADE0"/>
</g>
<circle cx="1558.54" cy="1273.06" r="30.6142" transform="rotate(-23.4451 1558.54 1273.06)" stroke="#000E1B" stroke-width="8"/>
<g filter="url(#filter3_i)">
<circle cx="1766.71" cy="1373.53" r="30.6142" transform="rotate(-23.4451 1766.71 1373.53)" fill="#63D3F7"/>
</g>
<circle cx="1766.71" cy="1373.53" r="30.6142" transform="rotate(-23.4451 1766.71 1373.53)" stroke="#000E1B" stroke-width="8"/>
<g filter="url(#filter4_i)">
<circle cx="1510.07" cy="1414.41" r="24.4914" transform="rotate(-23.4451 1510.07 1414.41)" fill="#5FE7DE"/>
</g>
<circle cx="1510.07" cy="1414.41" r="24.4914" transform="rotate(-23.4451 1510.07 1414.41)" stroke="#000E1B" stroke-width="8"/>
<g filter="url(#filter5_i)">
<circle cx="1532.99" cy="1347.95" r="21.4299" transform="rotate(-23.4451 1532.99 1347.95)" fill="#63D3F7"/>
</g>
<circle cx="1532.99" cy="1347.95" r="21.4299" transform="rotate(-23.4451 1532.99 1347.95)" stroke="#000E1B" stroke-width="8"/>
<g filter="url(#filter6_i)">
<circle cx="1666.47" cy="1322.24" r="21.4299" transform="rotate(-23.4451 1666.47 1322.24)" fill="#5FE7DE"/>
</g>
<circle cx="1666.47" cy="1322.24" r="21.4299" transform="rotate(-23.4451 1666.47 1322.24)" stroke="#000E1B" stroke-width="8"/>
</g>
<path d="M2479.5 1517.5C2456.3 1581.1 2421.5 1631.33 2407 1648.5C2457 1618.5 2482.83 1587.33 2489.5 1575.5C2508.3 1528.3 2541.67 1309.5 2556 1206C2540.17 1283.33 2502.7 1453.9 2479.5 1517.5Z" fill="#6E3F25"/>
<path d="M2554.9 1455.85C2536.37 1519.52 2508.58 1569.81 2497 1587C2536.93 1556.97 2557.56 1525.76 2562.89 1513.92C2577.9 1466.66 2604.55 1247.62 2616 1144C2603.35 1221.42 2573.43 1392.18 2554.9 1455.85Z" fill="#6E3F25"/>
<path d="M1796 857C1789.85 850.894 1781.03 777.774 1781 744.098C1789.5 702.5 2058.3 734.705 2067.75 744.098C2077.21 753.492 2069.75 854.34 2058.27 866.407C2046.79 878.474 1803.68 864.632 1796 857Z" fill="black" fill-opacity="0.1" stroke="#000D1A" stroke-width="8"/>
<path d="M2450.31 884.973C2456.81 879.182 2469.8 796.633 2471.5 763C2446.5 722.5 2193.1 739.443 2183.09 748.353C2173.08 757.262 2181.01 859.874 2192 872.5C2202.99 885.125 2442.18 892.212 2450.31 884.973Z" fill="black" fill-opacity="0.1" stroke="#000D1A" stroke-width="8"/>
<path d="M2073 808.296L2128.61 803L2180 816" stroke="#000D1A" stroke-width="8"/>
<path d="M1746.56 769.14C1751.02 768.709 1768.85 769.14 1780 772.372L1785 798L1746.56 786.919C1741.54 782.07 1742.1 769.571 1746.56 769.14Z" fill="#000D1A" stroke="#000D1A" stroke-width="8"/>
<path d="M2507.5 801.13C2503.5 800.73 2483 798.129 2473 801.129L2469.5 826.5L2507.5 819C2509.17 813.667 2511.5 801.53 2507.5 801.13Z" fill="#000D1A" stroke="#000D1A" stroke-width="8"/>
<path d="M1553 1022C1553.67 1014.67 1555 998.2 1555 991C1555 982 1550.5 943.5 1522 933.5C1493.5 923.5 1478 881.5 1477 875.5C1476 869.5 1477 794.5 1473 760C1469.8 732.4 1448 676.5 1437.5 652C1419.5 497.5 1397 506 1397.5 481C1397.9 461 1380 417.667 1371 398.5C1354 340 1306 274.5 1261 244.5C1225 220.5 1158.67 201.5 1130 195C1108.17 187 1050 170.6 992 169C919.5 167 870.5 195.5 828 217.5C794 235.1 738.5 231.833 715 228C673.667 226.167 569.2 249.7 482 358.5C394.8 467.3 360 633.5 353.5 703C347.167 751.667 346.8 872.6 396 967C390.167 1038.17 390.1 1195.4 436.5 1255C494.5 1329.5 538 1324 586 1396C598.333 1427.83 603.4 1499 525 1529C446.6 1559 421.333 1480.5 418.5 1437.5C413.667 1490.67 441.8 1589.8 593 1561C638.833 1555.83 737.6 1526.4 766 1450C777.167 1446.33 802.2 1425.3 813 1370.5C823.8 1315.7 786.167 1259.67 766 1238.5C756 1221.33 735.4 1186.5 733 1184.5C730 1182 731 1111 722 1069.5C713 1028 656.5 944.5 649 938.5C641.5 932.5 592.5 868 581.5 825C572.7 790.6 569.167 766.333 568.5 758.5C584.333 753.5 619.4 736 633 706C650 668.5 668.5 593.5 671 579.5C673.5 565.5 697 485 730 462C763 439 791 434.5 887 432C911.833 416.667 974.6 391 1027 411C1092.5 436 1147 557 1213.5 619C1266.7 668.6 1291.67 682.667 1297.5 683.5C1301.83 731.667 1310.1 834.6 1308.5 861C1306.5 894 1300.5 984.5 1300.5 996C1300.5 1005.2 1301.83 1017.83 1302.5 1023" stroke="#000D1A" stroke-width="8"/>
<path d="M732 1133C770 1148.67 876.6 1175.3 999 1156.5" stroke="#000D1A" stroke-width="8"/>
<path d="M1590.5 1023C1588.17 962.333 1582.4 831.4 1578 793C1572.5 745 1580 668.5 1581 649.5C1582 630.5 1594 519 1641.5 407.5C1679.5 318.3 1766.33 275.667 1805 265.5C1822.67 261.167 1862.4 252.2 1880 251C1902 249.5 1944 243 2011.5 207.5C2079 172 2186 141.5 2339 178.5C2492 215.5 2602 382 2639.5 474.5C2677 567 2711.5 700.5 2698 797C2684.5 893.5 2660.5 962 2659 1027.5C2657.5 1093 2604.5 1357.5 2599.5 1379.5C2594.5 1401.5 2572 1552 2534 1570C2496 1588 2488.5 1598.5 2487 1601.5C2485.5 1604.5 2466.5 1618.5 2458.5 1622C2450.5 1625.5 2420.5 1644.5 2414 1653C2407.5 1661.5 2296.5 1700 2270.5 1702C2276.17 1688.67 2286.4 1651.5 2282 1609.5C2276.5 1557 2269 1462.5 2292.5 1402.5C2311.3 1354.5 2381.67 1169.83 2414.5 1083.5C2435.17 1025.5 2477.8 905.8 2483 891C2489.5 872.5 2513.5 797 2514.5 783C2515.5 769 2524 692 2503.5 667.5L2452 664L2420 613L2442 666C2409.33 663.5 2342.1 658.3 2334.5 657.5C2325 656.5 2247.5 600.5 2225 580.5C2241.67 601.667 2281.6 646 2308 654C2282.33 655.167 2206.8 640.9 2110 574.5C2127.83 593.833 2182.3 638 2257.5 660C2197.33 667.5 2059.4 648.2 1989 511C2003.83 550.333 2046.8 637.5 2100 671.5C2063.33 673 1975.7 636.5 1918.5 478.5C1910.33 493.333 1911.3 525.4 1918.5 563C1927.5 610 1972 673.5 1984.5 682.5C1953.5 679.667 1861.5 633.5 1878.5 494C1865.83 540 1836 650 1805 682.5C1814.5 641.167 1824.5 622.5 1830.5 534.5C1807.5 597.833 1784.5 687.5 1746.44 752C1749.61 710.833 1775.5 589.9 1775.5 587.5C1775.5 584.5 1739 736.5 1746 807C1751.6 863.4 1767 974.5 1774 1023" stroke="#301100" stroke-width="8"/>
<defs>
<filter id="filter0_i" x="1439.54" y="1227.54" width="372.708" height="325.465" filterUnits="userSpaceOnUse" color-interpolation-filters="sRGB">
<feFlood flood-opacity="0" result="BackgroundImageFix"/>
<feBlend mode="normal" in="SourceGraphic" in2="BackgroundImageFix" result="shape"/>
<feColorMatrix in="SourceAlpha" type="matrix" values="0 0 0 0 0 0 0 0 0 0 0 0 0 0 0 0 0 0 127 0" result="hardAlpha"/>
<feOffset dy="4"/>
<feGaussianBlur stdDeviation="2"/>
<feComposite in2="hardAlpha" operator="arithmetic" k2="-1" k3="1"/>
<feColorMatrix type="matrix" values="0 0 0 0 0 0 0 0 0 0 0 0 0 0 0 0 0 0 0.1 0"/>
<feBlend mode="normal" in2="shape" result="effect1_innerShadow"/>
</filter>
<filter id="filter1_i" x="1439.54" y="1434.51" width="91.0569" height="91.0569" filterUnits="userSpaceOnUse" color-interpolation-filters="sRGB">
<feFlood flood-opacity="0" result="BackgroundImageFix"/>
<feBlend mode="normal" in="SourceGraphic" in2="BackgroundImageFix" result="shape"/>
<feColorMatrix in="SourceAlpha" type="matrix" values="0 0 0 0 0 0 0 0 0 0 0 0 0 0 0 0 0 0 127 0" result="hardAlpha"/>
<feOffset dx="10" dy="6"/>
<feComposite in2="hardAlpha" operator="arithmetic" k2="-1" k3="1"/>
<feColorMatrix type="matrix" values="0 0 0 0 0 0 0 0 0 0 0 0 0 0 0 0 0 0 0.25 0"/>
<feBlend mode="normal" in2="shape" result="effect1_innerShadow"/>
</filter>
<filter id="filter2_i" x="1513.01" y="1227.54" width="91.0569" height="91.0569" filterUnits="userSpaceOnUse" color-interpolation-filters="sRGB">
<feFlood flood-opacity="0" result="BackgroundImageFix"/>
<feBlend mode="normal" in="SourceGraphic" in2="BackgroundImageFix" result="shape"/>
<feColorMatrix in="SourceAlpha" type="matrix" values="0 0 0 0 0 0 0 0 0 0 0 0 0 0 0 0 0 0 127 0" result="hardAlpha"/>
<feOffset dx="10" dy="6"/>
<feComposite in2="hardAlpha" operator="arithmetic" k2="-1" k3="1"/>
<feColorMatrix type="matrix" values="0 0 0 0 0 0 0 0 0 0 0 0 0 0 0 0 0 0 0.25 0"/>
<feBlend mode="normal" in2="shape" result="effect1_innerShadow"/>
</filter>
<filter id="filter3_i" x="1721.19" y="1328" width="91.0569" height="91.0569" filterUnits="userSpaceOnUse" color-interpolation-filters="sRGB">
<feFlood flood-opacity="0" result="BackgroundImageFix"/>
<feBlend mode="normal" in="SourceGraphic" in2="BackgroundImageFix" result="shape"/>
<feColorMatrix in="SourceAlpha" type="matrix" values="0 0 0 0 0 0 0 0 0 0 0 0 0 0 0 0 0 0 127 0" result="hardAlpha"/>
<feOffset dx="10" dy="6"/>
<feComposite in2="hardAlpha" operator="arithmetic" k2="-1" k3="1"/>
<feColorMatrix type="matrix" values="0 0 0 0 0 0 0 0 0 0 0 0 0 0 0 0 0 0 0.25 0"/>
<feBlend mode="normal" in2="shape" result="effect1_innerShadow"/>
</filter>
<filter id="filter4_i" x="1472.6" y="1376.93" width="74.95" height="74.95" filterUnits="userSpaceOnUse" color-interpolation-filters="sRGB">
<feFlood flood-opacity="0" result="BackgroundImageFix"/>
<feBlend mode="normal" in="SourceGraphic" in2="BackgroundImageFix" result="shape"/>
<feColorMatrix in="SourceAlpha" type="matrix" values="0 0 0 0 0 0 0 0 0 0 0 0 0 0 0 0 0 0 127 0" result="hardAlpha"/>
<feOffset dx="10" dy="6"/>
<feComposite in2="hardAlpha" operator="arithmetic" k2="-1" k3="1"/>
<feColorMatrix type="matrix" values="0 0 0 0 0 0 0 0 0 0 0 0 0 0 0 0 0 0 0.25 0"/>
<feBlend mode="normal" in2="shape" result="effect1_innerShadow"/>
</filter>
<filter id="filter5_i" x="1499.54" y="1314.51" width="66.8966" height="66.8966" filterUnits="userSpaceOnUse" color-interpolation-filters="sRGB">
<feFlood flood-opacity="0" result="BackgroundImageFix"/>
<feBlend mode="normal" in="SourceGraphic" in2="BackgroundImageFix" result="shape"/>
<feColorMatrix in="SourceAlpha" type="matrix" values="0 0 0 0 0 0 0 0 0 0 0 0 0 0 0 0 0 0 127 0" result="hardAlpha"/>
<feOffset dx="10" dy="6"/>
<feComposite in2="hardAlpha" operator="arithmetic" k2="-1" k3="1"/>
<feColorMatrix type="matrix" values="0 0 0 0 0 0 0 0 0 0 0 0 0 0 0 0 0 0 0.25 0"/>
<feBlend mode="normal" in2="shape" result="effect1_innerShadow"/>
</filter>
<filter id="filter6_i" x="1633.02" y="1288.79" width="66.8966" height="66.8966" filterUnits="userSpaceOnUse" color-interpolation-filters="sRGB">
<feFlood flood-opacity="0" result="BackgroundImageFix"/>
<feBlend mode="normal" in="SourceGraphic" in2="BackgroundImageFix" result="shape"/>
<feColorMatrix in="SourceAlpha" type="matrix" values="0 0 0 0 0 0 0 0 0 0 0 0 0 0 0 0 0 0 127 0" result="hardAlpha"/>
<feOffset dx="10" dy="6"/>
<feComposite in2="hardAlpha" operator="arithmetic" k2="-1" k3="1"/>
<feColorMatrix type="matrix" values="0 0 0 0 0 0 0 0 0 0 0 0 0 0 0 0 0 0 0.25 0"/>
<feBlend mode="normal" in2="shape" result="effect1_innerShadow"/>
</filter>
</defs>
</svg>
