<svg width="473" height="263" viewBox="0 0 473 263" fill="none" xmlns="http://www.w3.org/2000/svg">
<path d="M255.601 106.376L99.7601 43.6247L37.0091 199.465" stroke="#000E1B" stroke-width="8"/>
<path d="M77 98L256 119" stroke="#000E1B" stroke-width="6" stroke-linecap="round" stroke-linejoin="round"/>
<line x1="45.4626" y1="160.424" x2="169.463" y2="86.4239" stroke="#000E1B" stroke-width="6"/>
<circle cx="36.8828" cy="205.904" r="25" transform="rotate(-23.4451 36.8828 205.904)" fill="#67ADE0" stroke="#000E1B" stroke-width="6"/>
<circle cx="96.8828" cy="36.8828" r="25" transform="rotate(-23.4451 96.8828 36.8828)" fill="#67ADE0" stroke="#000E1B" stroke-width="6"/>
<circle cx="266.883" cy="118.925" r="25" transform="rotate(-23.4451 266.883 118.925)" fill="#63D3F7" stroke="#000E1B" stroke-width="6"/>
<circle cx="57.3062" cy="152.306" r="20" transform="rotate(-23.4451 57.3062 152.306)" fill="#5FE7DE" stroke="#000E1B" stroke-width="6"/>
<circle cx="76.018" cy="98.0393" r="17.5" transform="rotate(-23.4451 76.018 98.0393)" fill="#63D3F7" stroke="#000E1B" stroke-width="6"/>
<circle cx="185.018" cy="77.0393" r="17.5" transform="rotate(-23.4451 185.018 77.0393)" fill="#5FE7DE" stroke="#000E1B" stroke-width="6"/>
<path d="M132.125 174.156H120.875V212H111.656V174.156H100.594V166.5H132.125V174.156ZM160.906 192.312H146.594V204.375H163.531V212H137.406V166.5H163.469V174.156H146.594V184.906H160.906V192.312ZM199.688 196.844C199.458 202.031 198 205.958 195.312 208.625C192.625 211.292 188.833 212.625 183.938 212.625C178.792 212.625 174.844 210.938 172.094 207.562C169.365 204.167 168 199.333 168 193.062V185.406C168 179.156 169.417 174.344 172.25 170.969C175.083 167.573 179.021 165.875 184.062 165.875C189.021 165.875 192.781 167.26 195.344 170.031C197.927 172.802 199.396 176.781 199.75 181.969H190.531C190.448 178.76 189.948 176.552 189.031 175.344C188.135 174.115 186.479 173.5 184.062 173.5C181.604 173.5 179.865 174.365 178.844 176.094C177.823 177.802 177.281 180.625 177.219 184.562V193.156C177.219 197.677 177.719 200.781 178.719 202.469C179.74 204.156 181.479 205 183.938 205C186.354 205 188.021 204.417 188.938 203.25C189.854 202.062 190.375 199.927 190.5 196.844H199.688ZM237.25 212H228.094V192.531H214.531V212H205.344V166.5H214.531V184.906H228.094V166.5H237.25V212ZM290.25 196.844C290.021 202.031 288.562 205.958 285.875 208.625C283.188 211.292 279.396 212.625 274.5 212.625C269.354 212.625 265.406 210.938 262.656 207.562C259.927 204.167 258.562 199.333 258.562 193.062V185.406C258.562 179.156 259.979 174.344 262.812 170.969C265.646 167.573 269.583 165.875 274.625 165.875C279.583 165.875 283.344 167.26 285.906 170.031C288.49 172.802 289.958 176.781 290.312 181.969H281.094C281.01 178.76 280.51 176.552 279.594 175.344C278.698 174.115 277.042 173.5 274.625 173.5C272.167 173.5 270.427 174.365 269.406 176.094C268.385 177.802 267.844 180.625 267.781 184.562V193.156C267.781 197.677 268.281 200.781 269.281 202.469C270.302 204.156 272.042 205 274.5 205C276.917 205 278.583 204.417 279.5 203.25C280.417 202.062 280.938 199.927 281.062 196.844H290.25ZM327.938 193.344C327.938 199.448 326.49 204.188 323.594 207.562C320.719 210.938 316.719 212.625 311.594 212.625C306.49 212.625 302.479 210.958 299.562 207.625C296.646 204.271 295.167 199.583 295.125 193.562V185.781C295.125 179.531 296.573 174.656 299.469 171.156C302.365 167.635 306.385 165.875 311.531 165.875C316.594 165.875 320.583 167.604 323.5 171.062C326.417 174.5 327.896 179.333 327.938 185.562V193.344ZM318.719 185.719C318.719 181.615 318.135 178.562 316.969 176.562C315.802 174.562 313.99 173.562 311.531 173.562C309.094 173.562 307.292 174.531 306.125 176.469C304.958 178.385 304.354 181.312 304.312 185.25V193.344C304.312 197.323 304.906 200.26 306.094 202.156C307.281 204.031 309.115 204.969 311.594 204.969C313.99 204.969 315.771 204.052 316.938 202.219C318.104 200.365 318.698 197.5 318.719 193.625V185.719ZM348.312 195.375H343.75V212H334.562V166.5H349.219C353.823 166.5 357.375 167.698 359.875 170.094C362.396 172.469 363.656 175.854 363.656 180.25C363.656 186.292 361.458 190.521 357.062 192.938L365.031 211.562V212H355.156L348.312 195.375ZM343.75 187.719H348.969C350.802 187.719 352.177 187.115 353.094 185.906C354.01 184.677 354.469 183.042 354.469 181C354.469 176.438 352.688 174.156 349.125 174.156H343.75V187.719ZM401.781 212H392.594L379.156 182.156V212H369.969V166.5H379.156L392.625 196.375V166.5H401.781V212ZM432.656 192.312H418.344V204.375H435.281V212H409.156V166.5H435.219V174.156H418.344V184.906H432.656V192.312ZM454.375 195.375H449.812V212H440.625V166.5H455.281C459.885 166.5 463.438 167.698 465.938 170.094C468.458 172.469 469.719 175.854 469.719 180.25C469.719 186.292 467.521 190.521 463.125 192.938L471.094 211.562V212H461.219L454.375 195.375ZM449.812 187.719H455.031C456.865 187.719 458.24 187.115 459.156 185.906C460.073 184.677 460.531 183.042 460.531 181C460.531 176.438 458.75 174.156 455.188 174.156H449.812V187.719Z" fill="#000E1B"/>
</svg>
